<svg width="22" height="18" viewBox="0 0 22 18" fill="none" xmlns="http://www.w3.org/2000/svg">
<path d="M0.675763 9.9897C0.425836 9.73978 0.285426 9.4008 0.285426 9.04735C0.285426 8.6939 0.425836 8.35492 0.675763 8.105L8.16747 0.519049C8.4174 0.269121 8.75638 0.128713 9.10983 0.128713C9.46328 0.128713 9.80225 0.269121 10.0522 0.519049C10.3021 0.768976 10.4425 1.10795 10.4425 1.4614C10.4425 1.81485 10.3021 2.15383 10.0522 2.40376L4.8127 7.64324L20.4181 7.66209C20.594 7.66137 20.7683 7.69549 20.931 7.76248C21.0937 7.82947 21.2415 7.92801 21.3659 8.05241C21.4903 8.17682 21.5888 8.32462 21.6558 8.4873C21.7228 8.64997 21.7569 8.8243 21.7562 9.00023C21.7569 9.17616 21.7228 9.35049 21.6558 9.51317C21.5888 9.67585 21.4903 9.82365 21.3659 9.94805C21.2415 10.0725 21.0937 10.171 20.931 10.238C20.7683 10.305 20.594 10.3391 20.4181 10.3384L4.79385 10.3384L10.0522 15.5967C10.3021 15.8466 10.4425 16.1856 10.4425 16.5391C10.4425 16.8925 10.3021 17.2315 10.0522 17.4814C9.80225 17.7313 9.46328 17.8718 9.10983 17.8718C8.75638 17.8718 8.4174 17.7313 8.16747 17.4814L0.675763 9.9897Z" fill="white"/>
</svg>
