<svg viewBox="0 0 529 294" fill="none" xmlns="http://www.w3.org/2000/svg">
<rect x="1.5" y="1.5" width="527" height="292" stroke="#A1A3A7"/>
<path fill-rule="evenodd" clip-rule="evenodd" d="M239.8 111C239.8 110.448 240.248 110 240.8 110H294.1C294.652 110 295.1 110.448 295.1 111V116.9C295.1 117.452 295.548 117.9 296.1 117.9H302C302.552 117.9 303 118.348 303 118.9V140.6C303 141.152 302.552 141.6 302 141.6H296.1C295.548 141.6 295.1 142.048 295.1 142.6V172.2C295.1 172.752 294.652 173.2 294.1 173.2H290C289.448 173.2 289 173.648 289 174.2V180C289 180.552 288.552 181 288 181H231C230.448 181 230 180.552 230 180V174.2C230 173.648 229.552 173.2 229 173.2H225C224.448 173.2 224 172.752 224 172.2V165.3V158.4C224 157.848 224.448 157.4 225 157.4H231C231.552 157.4 232 156.952 232 156.4V117C232 116.448 232.448 116 233 116H238.8C239.352 116 239.8 115.552 239.8 115V111ZM240 118.9C240 118.348 240.448 117.9 241 117.9H286.2C286.752 117.9 287.2 118.348 287.2 118.9V172C287.2 172.552 286.752 173 286.2 173H280C279.448 173 279 172.552 279 172V165C279 164.448 278.552 164 278 164H272.4C271.848 164 271.4 163.552 271.4 163V158.4C271.4 157.848 270.952 157.4 270.4 157.4H241C240.448 157.4 240 156.952 240 156.4V118.9ZM232.9 165.3C232.348 165.3 231.9 165.748 231.9 166.3V172C231.9 172.552 232.348 173 232.9 173H270C270.552 173 271 172.552 271 172V166.3C271 165.748 270.552 165.3 270 165.3L232.9 165.3ZM247.7 126.8C247.7 126.248 248.148 125.8 248.7 125.8H278.3C278.852 125.8 279.3 126.248 279.3 126.8V132.7C279.3 133.252 278.852 133.7 278.3 133.7H248.7C248.148 133.7 247.7 133.252 247.7 132.7V126.8ZM279.3 142.6C279.3 142.048 278.852 141.6 278.3 141.6H248.7C248.148 141.6 247.7 142.048 247.7 142.6V148.5C247.7 149.052 248.148 149.5 248.7 149.5H278.3C278.852 149.5 279.3 149.052 279.3 148.5V142.6Z" fill="#12FF80"/>
</svg>
