<svg width="50" height="50" viewBox="0 0 50 50" fill="none"
    xmlns="http://www.w3.org/2000/svg">
    <path fill-rule="evenodd" clip-rule="evenodd" d="M9 6.99988H12.5556V42.5557H9V6.99988ZM37.4448 7.00014H12.5563V10.5557H37.4448V39.0004H12.5563V42.556L37.4448 42.556H41.0004V7.00014H37.4454H37.4448ZM16.1104 14.1113H19.666V17.6669H16.1104V14.1113ZM26.7775 14.1113H23.2219V17.6669H26.7775V14.1113ZM30.3344 14.1113H33.89V17.6669H30.3344V14.1113ZM19.666 21.2223H16.1104V24.7779H19.666V21.2223ZM23.2219 21.2223H26.7775V24.7779H23.2219V21.2223ZM33.89 21.2223H30.3344V24.7779H33.89V21.2223ZM16.1104 28.3337H19.666V31.8893H16.1104V28.3337ZM26.7775 28.3337H23.2219V31.8893H26.7775V28.3337ZM19.6667 35.4447H30.3334V39.0003H19.6667V35.4447ZM33.89 28.3337H30.3344V31.8893H33.89V28.3337Z" fill="#A1A3A7"/>
</svg>
