<svg viewBox="0 0 32 32" fill="none"
    xmlns="http://www.w3.org/2000/svg">
    <path fill-rule="evenodd" clip-rule="evenodd" d="M29.3332 16C29.3332 23.3638 23.3636 29.3334 15.9998 29.3334C8.63604 29.3334 2.6665 23.3638 2.6665 16C2.6665 8.63622 8.63604 2.66669 15.9998 2.66669C23.3636 2.66669 29.3332 8.63622 29.3332 16ZM5.33317 16C5.33317 21.8911 10.1088 26.6667 15.9998 26.6667C21.8909 26.6667 26.6665 21.8911 26.6665 16C26.6665 10.109 21.8909 5.33335 15.9998 5.33335C10.1088 5.33335 5.33317 10.109 5.33317 16Z" fill="#00B460"/>
    <path d="M10.242 13.7011C9.70443 13.1979 8.86067 13.2258 8.35745 13.7634C7.85424 14.301 7.88213 15.1449 8.41975 15.6481L13.9411 20.8161C14.471 21.3119 15.3002 21.293 15.8069 20.7734L22.9362 13.4614C23.4503 12.9342 23.4397 12.09 22.9123 11.5759C22.3851 11.0619 21.541 11.0725 21.0269 11.5998L14.8095 17.9763L10.242 13.7011Z" fill="#00B460"/>
</svg>
