<svg width="12" height="8" viewBox="0 0 12 8" fill="none" xmlns="http://www.w3.org/2000/svg">
<path fill-rule="evenodd" clip-rule="evenodd" d="M6.70875 7.20875C6.51375 7.40375 6.25675 7.50075 5.99875 7.49977C5.74175 7.50075 5.48475 7.40375 5.28975 7.20875C5.28575 7.20475 5.24675 7.16275 5.24275 7.15875L0.29175 2.20575C-0.09725 1.81675 -0.09725 1.18075 0.29175 0.79175C0.68075 0.40275 1.31675 0.40275 1.70575 0.79175L5.99875 5.08575L10.2928 0.79175C10.6818 0.40275 11.3177 0.40275 11.7067 0.79175C12.0957 1.18075 12.0957 1.81675 11.7067 2.20575L6.76275 7.14875C6.75875 7.15275 6.71275 7.20475 6.70875 7.20875Z" fill="white"/>
</svg>
