<svg width="16" height="16" viewBox="0 0 16 16" fill="none" xmlns="http://www.w3.org/2000/svg">
<path fill-rule="evenodd" clip-rule="evenodd" d="M9.21246 8.00036L13.7498 12.5377C14.0833 12.8712 14.0833 13.4164 13.7498 13.7499C13.4155 14.0834 12.8711 14.0834 12.5377 13.7499L8.00032 9.21252L3.46297 13.7499C3.12865 14.0834 2.5843 14.0834 2.25083 13.7499C1.9165 13.4164 1.9165 12.8712 2.25083 12.5377L6.78818 8.00036L2.25074 3.4629C1.91642 3.12943 1.91642 2.58422 2.25074 2.25075C2.58421 1.91642 3.12856 1.91642 3.46289 2.25075L8.00032 6.78821L12.5378 2.25075C12.8712 1.91642 13.4156 1.91642 13.7499 2.25075C14.0834 2.58422 14.0834 3.12943 13.7499 3.4629L9.21246 8.00036Z" fill="#A1A3A7"/>
<path fill-rule="evenodd" clip-rule="evenodd" d="M3.28604 2.42752C3.04922 2.1907 2.66334 2.19103 2.42768 2.42729C2.19129 2.66308 2.19083 3.05011 2.42722 3.28589L7.14166 8.00036L2.42754 12.7145C2.19114 12.9503 2.19092 13.3371 2.42731 13.5729C2.66301 13.8086 3.04943 13.8092 3.28631 13.5729C3.28632 13.5729 3.28629 13.573 3.28631 13.5729L8.00025 8.85896L12.7144 13.5731C12.9501 13.8088 13.3363 13.8092 13.5732 13.5729C13.8088 13.3371 13.8087 12.9503 13.573 12.7145L9.03562 8.17714L9.21239 8.00036L9.03562 7.82359L13.5731 3.28612C13.8089 3.05028 13.8089 2.66336 13.5731 2.42752C13.3362 2.1907 12.9503 2.19103 12.7147 2.42729L8.00025 7.14177L3.28604 2.42752ZM9.56595 8.00036L13.9265 12.361C14.3576 12.7921 14.3576 13.4956 13.9265 13.9267C13.4947 14.3573 12.792 14.3579 12.3608 13.9267L8.00025 9.56607L3.63968 13.9267C3.20798 14.3573 2.50545 14.3579 2.07421 13.9269C1.64195 13.4957 1.64195 12.7919 2.07421 12.3607L6.43456 8.00036L2.07412 3.6399C2.07408 3.63985 2.07417 3.63995 2.07412 3.6399C1.64208 3.20881 1.64191 2.5051 2.0739 2.07397C2.50519 1.64181 3.20784 1.64221 3.63959 2.07397L8.00025 6.43466L12.3607 2.0742C12.792 1.64181 13.4948 1.64214 13.9266 2.07397C14.3577 2.50507 14.3577 3.20857 13.9266 3.63967L9.56595 8.00036Z" fill="#A1A3A7"/>
</svg>
