<svg width="100" height="100" viewBox="0 0 150 150" fill="none" xmlns="http://www.w3.org/2000/svg">
<path fill-rule="evenodd" clip-rule="evenodd" d="M48.4026 47.327C49.0508 47.9752 49.0508 49.0359 48.4026 49.6841L27.048 71.0387C24.7322 73.3545 24.7322 76.0533 26.9537 78.2747L48.4026 99.7237C49.0508 100.372 49.0508 101.432 48.4026 102.081L43.2408 107.243C42.5926 107.891 41.5319 107.891 40.8837 107.243L15.8345 82.1933C15.1627 81.5098 14.8799 80.838 14.8799 79.8716V69.6893C14.8799 68.7229 15.1686 67.8567 15.8463 67.1791L40.8778 42.1475C41.5319 41.5052 42.5926 41.5052 43.2408 42.1534L48.4085 47.3211L48.4026 47.327ZM102.264 48.4696C101.615 49.1178 101.615 50.1785 102.264 50.8266L123.618 72.1813C125.934 74.497 125.934 77.1958 123.713 79.4173L102.264 100.866C101.615 101.514 101.615 102.575 102.264 103.223L107.425 108.385C108.074 109.033 109.134 109.033 109.783 108.385L134.832 83.3359C135.504 82.6523 135.786 81.9806 135.786 81.0142V70.8319C135.786 69.8655 135.498 68.9993 134.82 68.3216L109.788 43.2901C109.134 42.6478 108.074 42.6478 107.425 43.296L102.258 48.4637L102.264 48.4696ZM60.3879 96.0803L55.2261 90.9185C54.5752 90.2676 54.4096 89.3778 54.8563 88.9312L89.6458 54.1417C90.0925 53.695 90.9822 53.8605 91.6331 54.5114L96.795 59.6733C97.4459 60.3242 97.6114 61.2139 97.1647 61.6606L62.3752 96.4501C61.9285 96.8967 61.0388 96.7312 60.3879 96.0803Z" fill="#12FF80"/>
</svg>
