<svg width="10" height="9" viewBox="0 0 10 9" fill="none" xmlns="http://www.w3.org/2000/svg">
<path fill-rule="evenodd" clip-rule="evenodd" d="M5.88347 4.49972L9.19156 7.80781C9.43469 8.05094 9.43469 8.44844 9.19156 8.69156C8.94781 8.93469 8.55094 8.93469 8.30781 8.69156L4.99972 5.38347L1.69162 8.69156C1.44787 8.93469 1.051 8.93469 0.807875 8.69156C0.564125 8.44844 0.564125 8.05094 0.807875 7.80781L4.11597 4.49972L0.807812 1.19156C0.564063 0.948438 0.564063 0.550938 0.807812 0.307812C1.05094 0.0640625 1.44781 0.0640625 1.69156 0.307812L4.99972 3.61597L8.30787 0.307812C8.551 0.0640625 8.94788 0.0640625 9.19163 0.307812C9.43475 0.550938 9.43475 0.948438 9.19163 1.19156L5.88347 4.49972Z" fill="white"/>
</svg>
