<svg width="56" height="56" viewBox="0 0 56 56" fill="none" xmlns="http://www.w3.org/2000/svg">
<path d="M28.2146 3C41.8875 3 53 14.4271 53 27.9937C53 41.5562 41.8958 52.9729 28.2083 52.9729L3 53V27.5625C3 14 14.525 3 28.2146 3ZM28.4562 12.5063C23.0542 12.5 18.0479 15.3229 15.2542 19.9438C12.4833 24.5438 12.3646 30.2708 14.9458 34.9854L12.1667 43.8542L22.1542 41.6167C27.8729 44.1687 34.5812 43.025 39.1042 38.7208C43.625 34.4417 45.0625 27.8292 42.7229 22.0604C40.3583 16.2729 34.7229 12.4979 28.4729 12.5083L28.4562 12.5063Z" fill="white"/>
</svg>
