<svg width="56" height="56" viewBox="0 0 56 56" fill="none" xmlns="http://www.w3.org/2000/svg">
<path d="M47.4064 9.6965C43.8371 8.05878 40.0096 6.85217 36.0078 6.1611C35.9349 6.14776 35.8621 6.1811 35.8245 6.24776C35.3323 7.12326 34.787 8.26542 34.4052 9.16316C30.1009 8.51877 25.8188 8.51877 21.6028 9.16316C21.2208 8.24547 20.6558 7.12326 20.1613 6.24776C20.1238 6.18332 20.051 6.14999 19.9781 6.1611C15.9785 6.84997 12.151 8.05657 8.57952 9.6965C8.5486 9.70983 8.5221 9.73207 8.50451 9.76094C1.24458 20.6071 -0.744217 31.1867 0.23142 41.6351C0.235835 41.6862 0.26453 41.7351 0.304262 41.7662C5.09415 45.2838 9.73398 47.4193 14.2877 48.8347C14.3605 48.857 14.4377 48.8303 14.4841 48.7703C15.5613 47.2993 16.5215 45.7483 17.3448 44.1172C17.3934 44.0217 17.347 43.9083 17.2477 43.8705C15.7246 43.2928 14.2744 42.5884 12.8794 41.7884C12.769 41.724 12.7602 41.5662 12.8617 41.4906C13.1553 41.2706 13.4489 41.0418 13.7292 40.8107C13.7799 40.7685 13.8506 40.7595 13.9102 40.7862C23.075 44.9705 32.9969 44.9705 42.0536 40.7862C42.1132 40.7573 42.1839 40.7662 42.2368 40.8084C42.5172 41.0395 42.8107 41.2706 43.1065 41.4906C43.208 41.5662 43.2014 41.724 43.0911 41.7884C41.696 42.6039 40.2458 43.2928 38.7205 43.8683C38.6212 43.9061 38.5771 44.0217 38.6256 44.1172C39.4666 45.746 40.4268 47.297 41.4841 48.7681C41.5283 48.8303 41.6077 48.857 41.6806 48.8347C46.2563 47.4193 50.8961 45.2838 55.686 41.7662C55.728 41.7351 55.7545 41.6884 55.7589 41.6373C56.9265 29.5578 53.8031 19.065 47.4792 9.76315C47.4637 9.73207 47.4373 9.70983 47.4064 9.6965ZM18.7134 35.2731C15.9542 35.2731 13.6806 32.7399 13.6806 29.629C13.6806 26.518 15.9101 23.9848 18.7134 23.9848C21.5387 23.9848 23.7902 26.5402 23.7461 29.629C23.7461 32.7399 21.5166 35.2731 18.7134 35.2731ZM37.3211 35.2731C34.5619 35.2731 32.2884 32.7399 32.2884 29.629C32.2884 26.518 34.5178 23.9848 37.3211 23.9848C40.1465 23.9848 42.3979 26.5402 42.3538 29.629C42.3538 32.7399 40.1465 35.2731 37.3211 35.2731Z" fill="white"/>
</svg>
