<svg width="50" height="50" viewBox="0 0 50 50" fill="none"
    xmlns="http://www.w3.org/2000/svg">
    <path d="M42.3548 8.80793C39.1182 7.29361 35.6575 6.19307 32.0394 5.56641C31.595 6.36976 31.0759 7.45029 30.718 8.30985C26.8719 7.73144 23.0611 7.73144 19.2857 8.30985C18.9279 7.45029 18.397 6.36976 17.9487 5.56641C14.3267 6.19307 10.862 7.29765 7.6254 8.81595C1.09717 18.681 -0.672523 28.3009 0.212326 37.7843C4.54219 41.0178 8.73835 42.982 12.8637 44.2673C13.8823 42.8655 14.7907 41.3753 15.5733 39.8047C14.0828 39.2384 12.6553 38.5395 11.3064 37.7281C11.6643 37.463 12.0143 37.1858 12.3525 36.9006C20.5796 40.7487 29.5185 40.7487 37.6474 36.9006C37.9895 37.1858 38.3395 37.463 38.6934 37.7281C37.3406 38.5435 35.9091 39.2424 34.4187 39.8088C35.2012 41.3753 36.1058 42.8695 37.1282 44.2713C41.2576 42.9859 45.4576 41.0218 49.7875 37.7843C50.8257 26.7907 48.0139 17.259 42.3548 8.80793ZM16.6941 31.9521C14.2244 31.9521 12.1991 29.6465 12.1991 26.8388C12.1991 24.0312 14.1812 21.7216 16.6941 21.7216C19.2071 21.7216 21.2324 24.0271 21.1892 26.8388C21.1931 29.6465 19.2071 31.9521 16.6941 31.9521ZM33.3057 31.9521C30.836 31.9521 28.8107 29.6465 28.8107 26.8388C28.8107 24.0312 30.7927 21.7216 33.3057 21.7216C35.8187 21.7216 37.844 24.0271 37.8008 26.8388C37.8008 29.6465 35.8187 31.9521 33.3057 31.9521Z" fill="url(#paint0_linear_48_374)"/>
    <defs>
        <linearGradient id="paint0_linear_48_374" x1="51.2795" y1="5.53809" x2="-7.01633" y2="18.6411" gradientUnits="userSpaceOnUse">
            <stop offset="0.0328893" stop-color="#12FF80"/>
            <stop offset="1" stop-color="#5FDDFF"/>
        </linearGradient>
    </defs>
</svg>
