<svg xmlns="http://www.w3.org/2000/svg" viewBox="0 0 24 24" preserveAspectRatio="xMidYMid meet" class="icon_TnMUQ" style="vertical-align: middle;">
    <path fill="currentColor" fill-rule="evenodd" d="M9.707 8.707a.993.993 0 0 0 .006-1.396 1.007 1.007 0 0 0-1.408-.03C8.273 7.312 7.519 8 6 8c-1.497 0-2.251-.67-2.303-.717a1 1 0 0 0-1.404 1.424C2.425 8.839 3.653 10 6 10c2.347 0 3.575-1.161 3.707-1.293m12 0a.993.993 0 0 0 .006-1.396 1.006 1.006 0 0 0-1.408-.03C20.273 7.312 19.519 8 18 8c-1.497 0-2.251-.67-2.303-.717a1 1 0 0 0-1.404 1.424C14.425 8.839 15.653 10 18 10c2.347 0 3.575-1.161 3.707-1.293M21.001 19a1 1 0 0 1-.896-.553C20.036 18.314 18.225 15 12 15c-6.225 0-8.036 3.314-8.11 3.456a1.002 1.002 0 0 1-1.344.43.997.997 0 0 1-.441-1.333C2.198 17.367 4.469 13 12 13s9.802 4.367 9.895 4.553A1.001 1.001 0 0 1 21.001 19"></path>
</svg>