<svg viewBox="0 0 24 24" fill="none"
    xmlns="http://www.w3.org/2000/svg">
    <path d="M12 22C17.5228 22 22 17.5228 22 12C22 6.47715 17.5228 2 12 2C6.47715 2 2 6.47715 2 12C2 17.5228 6.47715 22 12 22Z" stroke="white" stroke-width="2" stroke-linecap="round" stroke-linejoin="round"/>
    <path d="M8 14C8 14 9.5 16 12 16C14.5 16 16 14 16 14" stroke="white" stroke-width="2" stroke-linecap="round" stroke-linejoin="round"/>
    <path d="M10.6916 7.30844C10.5938 7.21065 10.4778 7.13308 10.3501 7.08016C10.2223 7.02724 10.0854 7 9.94718 7C9.80892 7 9.67202 7.02724 9.5443 7.08016C9.41657 7.13308 9.30053 7.21065 9.20279 7.30844L9.13526 7.37597C9.06053 7.4507 8.93937 7.4507 8.86464 7.37597L8.79711 7.30844C8.59968 7.11101 8.33192 7.0001 8.05272 7.0001C7.77352 7.0001 7.50576 7.11101 7.30834 7.30844C7.11091 7.50586 7 7.77362 7 8.05282C7 8.33202 7.11091 8.59979 7.30834 8.79721L7.51118 9.00005L8.86464 10.3535C8.93937 10.4282 9.06053 10.4282 9.13526 10.3535L10.4887 9.00005L10.6916 8.79721C10.7893 8.69947 10.8669 8.58343 10.9198 8.4557C10.9728 8.32798 11 8.19108 11 8.05282C11 7.91457 10.9728 7.77767 10.9198 7.64995C10.8669 7.52222 10.7893 7.40618 10.6916 7.30844Z" fill="#12FF80"/>
    <path d="M16.6916 7.30844C16.5938 7.21065 16.4778 7.13308 16.3501 7.08016C16.2223 7.02724 16.0854 7 15.9472 7C15.8089 7 15.672 7.02724 15.5443 7.08016C15.4166 7.13308 15.3005 7.21065 15.2028 7.30844L15.1353 7.37597C15.0605 7.4507 14.9394 7.4507 14.8646 7.37597L14.7971 7.30844C14.5997 7.11101 14.3319 7.0001 14.0527 7.0001C13.7735 7.0001 13.5058 7.11101 13.3083 7.30844C13.1109 7.50586 13 7.77362 13 8.05282C13 8.33202 13.1109 8.59979 13.3083 8.79721L13.5112 9.00005L14.8646 10.3535C14.9394 10.4282 15.0605 10.4282 15.1353 10.3535L16.4887 9.00005L16.6916 8.79721C16.7893 8.69947 16.8669 8.58343 16.9198 8.4557C16.9728 8.32798 17 8.19108 17 8.05282C17 7.91457 16.9728 7.77767 16.9198 7.64995C16.8669 7.52222 16.7893 7.40618 16.6916 7.30844Z" fill="#12FF80"/>
</svg>
