<svg width="56" height="56" viewBox="0 0 56 56" fill="none" xmlns="http://www.w3.org/2000/svg">
<path fill-rule="evenodd" clip-rule="evenodd" d="M28.0008 1.1665C21.3537 1.16995 14.9245 3.52424 9.8629 7.80839C4.80129 12.0925 1.43731 18.0272 0.372474 24.5512C-0.692363 31.0751 0.611366 37.763 4.05057 43.4189C7.48977 49.0748 12.8402 53.33 19.145 55.4234C20.536 55.6816 21.0599 54.8195 21.0599 54.0865C21.0599 53.3535 21.0321 51.2282 21.0228 48.9047C13.2335 50.5874 11.5875 45.6176 11.5875 45.6176C10.3171 42.3905 8.48102 41.5423 8.48102 41.5423C5.9402 39.8181 8.67114 39.8503 8.67114 39.8503C11.4855 40.0486 12.9646 42.7225 12.9646 42.7225C15.459 46.9776 19.516 45.7467 21.1109 45.0275C21.3613 43.225 22.0892 41.9987 22.8914 41.3025C16.6691 40.6018 10.1316 38.2137 10.1316 27.5458C10.0931 24.7792 11.1256 22.1036 13.0156 20.0728C12.7281 19.372 11.7683 16.5414 13.2891 12.6965C13.2891 12.6965 15.6398 11.9497 20.9904 15.5502C25.5798 14.3023 30.4219 14.3023 35.0113 15.5502C40.3572 11.9497 42.7032 12.6965 42.7032 12.6965C44.2287 16.5322 43.2689 19.3628 42.9814 20.0728C44.8774 22.1039 45.9121 24.7842 45.87 27.555C45.87 38.246 39.3186 40.6018 33.0871 41.2887C34.0886 42.1554 34.9834 43.8473 34.9834 46.4475C34.9834 50.1725 34.951 53.1691 34.951 54.0865C34.951 54.8287 35.4563 55.6954 36.8751 55.4234C43.1807 53.3297 48.5317 49.0738 51.9708 43.4169C55.4099 37.7601 56.713 31.0712 55.6469 24.5466C54.5809 18.022 51.2153 12.0873 46.152 7.80392C41.0887 3.5205 34.658 1.16777 28.0101 1.1665H28.0008Z" fill="white"/>
<path d="M18.7321 46.6089C18.7321 46.8348 18.4725 47.0284 18.1386 47.033C17.8048 47.0376 17.5312 46.8532 17.5312 46.6273C17.5312 46.4014 17.7909 46.2078 18.1247 46.2032C18.4585 46.1986 18.7321 46.3784 18.7321 46.6089Z" fill="white"/>
<path d="M20.8643 46.2538C20.906 46.4797 20.6742 46.7148 20.3403 46.7701C20.0065 46.8255 19.7144 46.6918 19.6727 46.4705C19.6309 46.2492 19.872 46.0095 20.1966 45.9495C20.5212 45.8896 20.8225 46.0279 20.8643 46.2538Z" fill="white"/>
<path d="M16.4407 46.4524C16.3712 46.6691 16.0559 46.7659 15.7406 46.6737C15.4253 46.5815 15.2167 46.3233 15.277 46.102C15.3372 45.8807 15.6572 45.7793 15.9771 45.8808C16.297 45.9822 16.501 46.2265 16.4407 46.4524Z" fill="white"/>
<path d="M14.3411 45.5487C14.1881 45.7193 13.8775 45.6732 13.6224 45.4427C13.3674 45.2122 13.3071 44.8987 13.4601 44.7327C13.6132 44.5668 13.9238 44.6129 14.1881 44.8388C14.4524 45.0647 14.5034 45.3828 14.3411 45.5487Z" fill="white"/>
<path d="M12.843 43.9995C12.6715 44.1194 12.3794 43.9995 12.2171 43.7598C12.1722 43.7168 12.1365 43.6652 12.1122 43.6082C12.0878 43.5511 12.0752 43.4898 12.0752 43.4278C12.0752 43.3659 12.0878 43.3045 12.1122 43.2475C12.1365 43.1905 12.1722 43.1389 12.2171 43.0959C12.3886 42.9807 12.6808 43.0959 12.843 43.331C13.0053 43.5661 13.0099 43.8796 12.843 43.9995Z" fill="white"/>
<path d="M11.7392 42.4C11.6432 42.4481 11.5333 42.4615 11.4285 42.438C11.3236 42.4144 11.2302 42.3554 11.1643 42.2709C10.9835 42.0773 10.9463 41.8099 11.0854 41.69C11.2245 41.5702 11.4749 41.6255 11.6558 41.8191C11.8366 42.0127 11.8783 42.2801 11.7392 42.4Z" fill="white"/>
<path d="M10.6036 41.1415C10.5434 41.2798 10.3208 41.3213 10.14 41.2245C9.95917 41.1276 9.82472 40.9478 9.88963 40.8049C9.95454 40.662 10.1725 40.6251 10.3533 40.7219C10.5341 40.8188 10.6732 41.0032 10.6036 41.1415Z" fill="white"/>
</svg>
