<svg width="70" height="70" viewBox="0 0 101 100" fill="none" xmlns="http://www.w3.org/2000/svg">
<g clip-path="url(#clip0_19_6054)">
<path fill-rule="evenodd" clip-rule="evenodd" d="M8 10.8592C8 9.2801 9.2801 8 10.8592 8H39.1738C40.7529 8 42.033 9.2801 42.033 10.8592V39.1738C42.033 40.7529 40.7529 42.033 39.1738 42.033H31.6788C30.4982 42.033 29.5412 42.99 29.5412 44.1705V90.8064C29.5412 91.4656 29.0068 92 28.3476 92H21.6854C21.0262 92 20.4918 91.4656 20.4918 90.8064V44.1705C20.4918 42.99 19.5347 42.033 18.3542 42.033H10.8592C9.2801 42.033 8 40.7529 8 39.1738V10.8592ZM19.187 17.0495C18.0065 17.0495 17.0495 18.0065 17.0495 19.187V30.846C17.0495 32.0265 18.0065 32.9835 19.187 32.9835H30.846C32.0265 32.9835 32.9835 32.0265 32.9835 30.846V19.187C32.9835 18.0065 32.0265 17.0495 30.846 17.0495H19.187Z" fill="#12FF80"/>
<path fill-rule="evenodd" clip-rule="evenodd" d="M49.6392 21.6854C49.6392 21.0261 50.1736 20.4918 50.8328 20.4918H71.427C71.8966 20.4918 72.347 20.6783 72.6791 21.0104L79.365 27.6962C79.6971 28.0283 79.8836 28.4787 79.8836 28.9484V55.8295C79.8836 57.01 80.8406 57.967 82.0212 57.967H90.8064C91.4656 57.967 92 58.5014 92 59.1606V90.8064C92 91.4656 91.4656 92 90.8064 92H59.1606C58.5014 92 57.967 91.4656 57.967 90.8064V59.1606C57.967 58.5014 58.5014 57.967 59.1606 57.967H68.6966C69.8771 57.967 70.8342 57.01 70.8342 55.8295V31.6788C70.8342 30.4982 69.8771 29.5412 68.6966 29.5412H50.8328C50.1736 29.5412 49.6392 29.0068 49.6392 28.3476V21.6854ZM69.154 67.0165C67.9735 67.0165 67.0165 67.9735 67.0165 69.154V80.813C67.0165 81.9935 67.9735 82.9505 69.154 82.9505H80.813C81.9935 82.9505 82.9505 81.9935 82.9505 80.813V69.154C82.9505 67.9735 81.9935 67.0165 80.813 67.0165H69.154Z" fill="#12FF80"/>
</g>
<defs>
<clipPath id="clip0_19_6054">
<rect width="100" height="100" fill="white" transform="translate(0.117188)"/>
</clipPath>
</defs>
</svg>
