<svg width="70" height="70" viewBox="0 0 101 100" fill="none" xmlns="http://www.w3.org/2000/svg">
<g clip-path="url(#clip0_19_6040)">
<path d="M50.1687 91.498C50.1687 92.8798 49.0485 94 47.6667 94H20.9087C19.4485 94 18.2658 92.8173 18.2658 91.3571V88.4366C18.2658 86.9764 17.0831 85.7937 15.6229 85.7937H12.6429C11.1827 85.7937 10 84.6109 10 83.1507V15.9021C10 14.4485 11.1761 13.2592 12.6297 13.2592L15.6361 13.246C17.0897 13.2394 18.2658 12.0567 18.2658 10.603V7.64294C18.2658 6.18272 19.4485 5 20.9087 5H79.1621C80.6157 5 81.7985 6.18272 81.8117 7.63633V10.7946C81.8183 12.2549 83.001 13.431 84.4612 13.4244H87.4147C88.8749 13.4244 90.0643 14.6071 90.0643 16.0673V56.1124C90.0643 57.4943 88.9441 58.6145 87.5622 58.6145H84.7203C83.3387 58.6145 82.2186 57.4946 82.2183 56.1129L82.2104 16.4968C82.2104 15.0366 80.0277 12.8539 78.5675 12.8539H21.477C20.0167 12.8539 17.834 15.0366 17.834 16.4968L17.8472 82.5098C17.8472 83.97 20.03 86.1527 21.4902 86.1527H47.6667C49.0485 86.1527 50.1687 87.2729 50.1687 88.6548V91.498Z" fill="#12FF80"/>
<path d="M70.4704 72.1057C70.7115 72.3468 70.7115 72.7414 70.4704 72.9825L62.5265 80.9264C61.665 81.7879 61.665 82.7918 62.4914 83.6182L70.4704 91.5972C70.7115 91.8384 70.7115 92.2327 70.4704 92.4741L68.5502 94.3944C68.3091 94.6354 67.9145 94.6354 67.6734 94.3944L58.3551 85.0759C58.1052 84.8217 58 84.5718 58 84.2122V80.4244C58 80.0649 58.1074 79.7427 58.3595 79.4907L67.6712 70.1789C67.9145 69.94 68.3091 69.94 68.5502 70.1811L70.4726 72.1035L70.4704 72.1057Z" fill="#12FF80"/>
<path d="M77.5068 72.5307C77.2654 72.7719 77.2654 73.1665 77.5068 73.4075L85.4505 81.3515C86.312 82.2129 86.312 83.2169 85.4858 84.0433L77.5068 92.0221C77.2654 92.2632 77.2654 92.6579 77.5068 92.8989L79.4267 94.8192C79.6681 95.0603 80.0624 95.0603 80.3039 94.8192L89.6221 85.501C89.872 85.2467 89.977 84.9968 89.977 84.6373V80.8495C89.977 80.49 89.8698 80.1678 89.6176 79.9157L80.3057 70.604C80.0624 70.365 79.6681 70.365 79.4267 70.6062L77.5046 72.5285L77.5068 72.5307Z" fill="#12FF80"/>
<path d="M30.0941 23C28.9376 23 28 23.9376 28 25.0941V27.9059C28 29.0624 28.9376 30 30.0941 30H70.9059C72.0624 30 73 29.0624 73 27.9059V25.0941C73 23.9376 72.0624 23 70.9059 23H30.0941Z" fill="#12FF80"/>
<path d="M28 42.0941C28 40.9376 28.9376 40 30.0941 40H70.9059C72.0624 40 73 40.9376 73 42.0941V44.9059C73 46.0624 72.0624 47 70.9059 47H30.0941C28.9376 47 28 46.0624 28 44.9059V42.0941Z" fill="#12FF80"/>
<path d="M30.0941 57C28.9376 57 28 57.9376 28 59.0941V61.9059C28 63.0624 28.9376 64 30.0941 64H47.9059C49.0624 64 50 63.0624 50 61.9059V59.0941C50 57.9376 49.0624 57 47.9059 57H30.0941Z" fill="#12FF80"/>
</g>
<defs>
<clipPath id="clip0_19_6040">
<rect width="100" height="100" fill="white" transform="translate(0.117188)"/>
</clipPath>
</defs>
</svg>
