<svg width="70" height="70" viewBox="0 0 101 100" fill="none" xmlns="http://www.w3.org/2000/svg">
<g clip-path="url(#clip0_19_6049)">
<path fill-rule="evenodd" clip-rule="evenodd" d="M32 6C30.8954 6 30 6.89543 30 8V12C30 13.1046 30.8954 14 32 14H68C69.1046 14 70 13.1046 70 12V8C70 6.89543 69.1046 6 68 6H32ZM22 24C22 22.8954 22.8954 22 24 22H76C77.1046 22 78 22.8954 78 24V28C78 29.1046 77.1046 30 76 30H24C22.8954 30 22 29.1046 22 28V24ZM93.0488 85.6697V47.4774C93.0488 46.2269 92.0304 45.2141 90.7799 45.2141H88.2507C87.0003 45.2198 85.9875 44.2126 85.9818 42.9622V40.2576C85.9705 39.0128 84.9577 38 83.7129 38H16.3416C15.0911 38 14.0783 39.0128 14.0783 40.2633V42.7981C14.0783 44.0429 13.0712 45.0557 11.8264 45.0613L9.25194 45.0727C8.00715 45.0727 7 46.0911 7 47.3359V85.7094C7 86.9598 8.0128 87.9726 9.26325 87.9726H11.8151C13.0655 87.9726 14.0783 88.9854 14.0783 90.2359V92.7367C14.0783 93.9872 15.0911 95 16.3416 95H83.7072C84.9577 95 85.9705 93.9872 85.9705 92.7367V90.2019C85.9705 88.9571 86.9776 87.9443 88.2224 87.9386L90.7912 87.9273C92.036 87.9273 93.0432 86.9089 93.0432 85.6641L93.0488 85.6697ZM83.215 87.4238H16.8395C15.589 87.4238 14.5762 86.411 14.5762 85.1605L14.5649 47.8451C14.5649 46.5947 15.5777 45.5819 16.8282 45.5819H83.2037C84.4541 45.5819 85.4669 46.5947 85.4669 47.8451L85.4782 85.1605C85.4782 86.411 84.4654 87.4238 83.215 87.4238Z" fill="#12FF80"/>
</g>
<defs>
<clipPath id="clip0_19_6049">
<rect width="100" height="100" fill="white" transform="translate(0.117188)"/>
</clipPath>
</defs>
</svg>
