<svg width="50" height="50" viewBox="0 0 50 50" fill="none"
    xmlns="http://www.w3.org/2000/svg">
    <path d="M29.07 36.1688V37.9246C29.07 38.4525 28.6423 38.8801 28.1144 38.8801H12.1256C11.5976 38.8801 11.17 38.4525 11.17 37.9246L11.1652 21.9405C11.1676 21.4126 11.5928 20.985 12.1208 20.985H13.8814C14.1442 20.985 14.3592 20.77 14.3592 20.5072V18.264C14.3592 18.0013 14.1442 17.7863 13.8814 17.7863H11.9153C11.3874 17.7863 10.9598 18.2139 10.9598 18.7418V19.8073C10.9598 20.3352 10.5346 20.7628 10.0066 20.7652H9.51689L8.92206 20.77C8.39651 20.77 7.97128 21.2 7.97128 21.7255V38.1563C7.97128 38.6843 8.39889 39.1119 8.92684 39.1119H10.0042C10.5322 39.1119 10.9598 39.5395 10.9598 40.0674V41.1233C10.9598 41.6513 11.3874 42.0789 11.9153 42.0789H28.3198C28.8478 42.0789 29.2754 41.6513 29.2754 41.1257V40.0531C29.2754 39.5275 29.7006 39.1023 30.2286 39.0999H30.7589L30.7804 39.0975H31.3131C31.8387 39.0928 32.2639 38.6651 32.2639 38.1396V36.1688C32.2639 35.906 32.0489 35.691 31.7861 35.691H29.5477C29.285 35.691 29.07 35.906 29.07 36.1688Z" fill="#A1A3A7"/>
    <path d="M41.0765 29.3223V12.9679C41.0765 12.44 40.6465 12.0124 40.1186 12.0124H39.0507C38.5228 12.0148 38.0952 11.5896 38.0928 11.0616V9.91972C38.088 9.39416 37.6604 8.96655 37.1348 8.96655H20.7255C20.1976 8.96655 19.77 9.39416 19.77 9.92211V10.9923C19.77 11.5179 19.3448 11.9455 18.8192 11.9479L17.7323 11.9527C17.2067 11.9527 16.7815 12.3827 16.7815 12.9082V29.339C16.7815 29.8669 17.2091 30.2946 17.737 30.2946H18.8144C19.3424 30.2946 19.77 30.7222 19.77 31.2501V32.306C19.77 32.8339 20.1976 33.2616 20.7255 33.2616H37.1324C37.6604 33.2616 38.088 32.8339 38.088 32.306V31.2358C38.088 30.7102 38.5132 30.2826 39.0388 30.2802L40.1233 30.2754C40.6489 30.2754 41.0741 29.8454 41.0741 29.3199L41.0765 29.3223ZM36.927 30.0628H20.9358C20.4078 30.0628 19.9802 29.6352 19.9802 29.1073L19.9754 13.1232C19.9754 12.5953 20.403 12.1677 20.931 12.1677H36.9198C37.4478 12.1677 37.8754 12.5953 37.8754 13.1232L37.8802 29.1073C37.8802 29.6352 37.4525 30.0628 36.9246 30.0628H36.927Z" fill="#A1A3A7"/>
</svg>
