<svg width="100" height="100" viewBox="0 0 150 150" fill="none" xmlns="http://www.w3.org/2000/svg">
<path fill-rule="evenodd" clip-rule="evenodd" d="M95.2058 40.6483L87.687 33.1295C86.7495 32.192 85.487 31.667 84.162 31.667H65.762C64.437 31.667 63.1745 32.192 62.237 33.1295L54.7183 40.6483C53.7808 41.5858 53.2558 42.8483 53.2558 44.1733V55.3047H37.8183C36.437 55.3047 35.3183 56.4235 35.3183 57.8047V60.6047C35.3183 61.9797 34.2058 63.0985 32.8308 63.1047L29.987 63.1172C28.612 63.1172 27.4995 64.2422 27.4995 65.6172V108.005C27.4995 109.386 28.6183 110.505 29.9995 110.505H32.8183C34.1995 110.505 35.3183 111.624 35.3183 113.005V115.767C35.3183 117.149 36.437 118.267 37.8183 118.267H112.231C113.612 118.267 114.731 117.149 114.731 115.767V112.967C114.731 111.592 115.843 110.474 117.218 110.467L120.056 110.455C121.431 110.455 122.543 109.33 122.543 107.955L122.55 107.961V65.7735C122.55 64.3922 121.425 63.2735 120.043 63.2735H117.25C115.868 63.2797 114.75 62.1672 114.743 60.786V57.7985C114.731 56.4235 113.612 55.3047 112.237 55.3047H96.662V44.1733C96.662 42.8483 96.137 41.5858 95.1995 40.6483H95.2058ZM88.5495 55.3047V46.7608C88.5495 45.9358 88.2183 45.142 87.637 44.5608L83.7745 40.6983C83.187 40.1108 82.3995 39.7858 81.5745 39.7858H68.3433C67.5183 39.7858 66.7245 40.117 66.1433 40.6983L62.2808 44.5608C61.6933 45.1483 61.3683 45.9358 61.3683 46.7608V55.3047H88.5495ZM59.2373 73.417H46.6623C45.9748 73.417 45.4123 73.9795 45.4123 74.667V85.367C45.4123 86.0545 45.9748 86.617 46.6623 86.617H47.5186C48.2061 86.617 48.7686 87.1795 48.7686 87.867V98.9108C48.7686 99.5983 49.3311 100.161 50.0186 100.161H55.8811C56.5686 100.161 57.1311 99.5983 57.1311 98.9108V87.867C57.1311 87.1795 57.6936 86.617 58.3811 86.617H59.2373C59.9248 86.617 60.4873 86.0545 60.4873 85.367V74.667C60.4873 73.9795 59.9248 73.417 59.2373 73.417ZM81.2497 73.417H68.6747C67.9872 73.417 67.4247 73.9795 67.4247 74.667V85.367C67.4247 86.0545 67.9872 86.617 68.6747 86.617H69.5309C70.2184 86.617 70.7809 87.1795 70.7809 87.867V98.9108C70.7809 99.5983 71.3434 100.161 72.0309 100.161H77.8934C78.5809 100.161 79.1434 99.5983 79.1434 98.9108V87.867C79.1434 87.1795 79.7059 86.617 80.3934 86.617H81.2497C81.9372 86.617 82.4997 86.0545 82.4997 85.367V74.667C82.4997 73.9795 81.9372 73.417 81.2497 73.417ZM90.6936 73.417H103.269C103.956 73.417 104.519 73.9795 104.519 74.667V85.367C104.519 86.0545 103.956 86.617 103.269 86.617H102.412C101.725 86.617 101.162 87.1795 101.162 87.867V98.9108C101.162 99.5983 100.6 100.161 99.9124 100.161H94.0499C93.3624 100.161 92.7999 99.5983 92.7999 98.9108V87.867C92.7999 87.1795 92.2374 86.617 91.5499 86.617H90.6936C90.0061 86.617 89.4436 86.0545 89.4436 85.367V74.667C89.4436 73.9795 90.0061 73.417 90.6936 73.417ZM38.3683 109.899H111.687C113.068 109.899 114.187 108.78 114.187 107.399L114.175 66.1797C114.175 64.7985 113.056 63.6797 111.675 63.6797H38.3558C36.9745 63.6797 35.8558 64.7985 35.8558 66.1797L35.8683 107.399C35.8683 108.78 36.987 109.899 38.3683 109.899Z" fill="#12FF80"/>
</svg>
