<svg viewBox="0 0 529 294" fill="none"
    xmlns="http://www.w3.org/2000/svg">
    <rect x="1.5" y="1.5" width="527" height="292" stroke="#A1A3A7"/>
    <path fill-rule="evenodd" clip-rule="evenodd" d="M238 117.727C238 117.175 238.448 116.727 239 116.727H291C291.552 116.727 292 117.175 292 117.727V121.864C292 122.416 292.448 122.864 293 122.864H297.75C298.302 122.864 298.75 123.311 298.75 123.864V147V154.5V169.5V175.364V176C298.75 176.552 298.302 177 297.75 177L280 177L273.5 177C272.948 177 272.5 176.552 272.5 176V169.5V154.5V148C272.5 147.448 272.948 147 273.5 147H280H290.25C290.802 147 291.25 146.552 291.25 146V125.909C291.25 125.357 290.802 124.909 290.25 124.909H239.75C239.198 124.909 238.75 125.357 238.75 125.909V146C238.75 146.552 239.198 147 239.75 147H250H256.5C257.052 147 257.5 147.448 257.5 148V154.5V169.5V176C257.5 176.552 257.052 177 256.5 177L250 177L232.25 177C231.698 177 231.25 176.552 231.25 176V175.364V169.5V154.5V147V123.864C231.25 123.311 231.698 122.864 232.25 122.864H237C237.552 122.864 238 122.416 238 121.864V117.727ZM239.75 154.5C239.198 154.5 238.75 154.948 238.75 155.5V168.5C238.75 169.052 239.198 169.5 239.75 169.5H249C249.552 169.5 250 169.052 250 168.5V155.5C250 154.948 249.552 154.5 249 154.5H239.75ZM291.25 155.5C291.25 154.948 290.802 154.5 290.25 154.5H281C280.448 154.5 280 154.948 280 155.5V168.5C280 169.052 280.448 169.5 281 169.5H290.25C290.802 169.5 291.25 169.052 291.25 168.5V155.5Z" fill="#12FF80"/>
</svg>
