<svg width="100" height="100" viewBox="0 0 151 151" fill="none" xmlns="http://www.w3.org/2000/svg">
<path fill-rule="evenodd" clip-rule="evenodd" d="M48.4415 32.2397C48.4415 31.1352 49.337 30.2397 50.4415 30.2397H82.8452C83.9497 30.2397 84.8452 31.1352 84.8452 32.2397V35.765C84.8452 36.8696 85.7406 37.765 86.8452 37.765H93.1414C94.246 37.765 95.1414 38.6604 95.1414 39.765V46.4415C95.1414 47.5461 96.0369 48.4415 97.1414 48.4415H101.047C102.152 48.4415 103.047 49.337 103.047 50.4415V82.8452C103.047 83.9497 102.152 84.8452 101.047 84.8452H97.1415C96.0369 84.8452 95.1415 85.7406 95.1415 86.8452V90.8594C95.1415 91.964 96.0369 92.8594 97.1415 92.8594H102.269C103.374 92.8594 104.269 93.7549 104.269 94.8594V99.6615C104.269 100.766 105.165 101.662 106.269 101.662H111.398C112.502 101.662 113.398 102.557 113.398 103.662V108.79C113.398 109.894 114.293 110.79 115.398 110.79H120.526C121.63 110.79 122.526 111.685 122.526 112.79V120.526C122.526 121.63 121.63 122.526 120.526 122.526H112.79C111.685 122.526 110.79 121.63 110.79 120.526V115.398C110.79 114.293 109.894 113.398 108.79 113.398H103.661C102.557 113.398 101.661 112.502 101.661 111.398V106.27C101.661 105.165 100.766 104.27 99.6614 104.27H94.8594C93.7548 104.27 92.8594 103.374 92.8594 102.27V97.1415C92.8594 96.0369 91.9639 95.1415 90.8594 95.1415H86.8452C85.7406 95.1415 84.8452 96.0369 84.8452 97.1415V101.047C84.8452 102.152 83.9498 103.047 82.8452 103.047H50.4415C49.337 103.047 48.4415 102.152 48.4415 101.047V97.4675C48.4415 96.3629 47.5461 95.4675 46.4415 95.4675H40.091C38.9864 95.4675 38.091 94.5721 38.091 93.4675V86.8452C38.091 85.7406 37.1955 84.8452 36.091 84.8452H32.2397C31.1352 84.8452 30.2397 83.9498 30.2397 82.8452V50.4415C30.2397 49.337 31.1352 48.4415 32.2397 48.4415H36.091C37.1955 48.4415 38.091 47.5461 38.091 46.4415V40.091C38.091 38.9864 38.9864 38.091 40.091 38.091H46.4415C47.5461 38.091 48.4415 37.1955 48.4415 36.091V32.2397ZM83.7314 91.9461C83.7314 93.0506 82.836 93.9461 81.7314 93.9461H51.8271C50.7225 93.9461 49.8271 93.0506 49.8271 91.9461V85.4054C49.8271 84.3008 48.9316 83.4054 47.8271 83.4054H41.3407C40.2361 83.4054 39.3407 82.51 39.3407 81.4054V51.8271C39.3407 50.7225 40.2361 49.8271 41.3407 49.8271H47.8271C48.9316 49.8271 49.8271 48.9316 49.8271 47.8271V41.3407C49.8271 40.2361 50.7225 39.3407 51.8271 39.3407H81.4053C82.5099 39.3407 83.4053 40.2361 83.4053 41.3407V47.5011C83.4053 48.6057 84.3008 49.5011 85.4053 49.5011H91.9461C93.0507 49.5011 93.9461 50.3965 93.9461 51.5011V81.7314C93.9461 82.8359 93.0507 83.7314 91.9461 83.7314H85.7314C84.6268 83.7314 83.7314 84.6268 83.7314 85.7314V91.9461Z" fill="#12FF80"/>
<path d="M70.5114 55.1354L70.6653 55.2893C70.5577 55.7526 70.684 56.2597 71.0441 56.6199L79.6671 65.2429C80.0324 65.6082 80.1511 65.9362 80.1536 66.1949C80.156 66.4513 80.0455 66.7638 79.7052 67.1041L71.0441 75.7652C70.4895 76.3198 70.4895 77.223 71.0441 77.7776L73.1285 79.862C73.6831 80.4166 74.5863 80.4166 75.1409 79.862L85.2558 69.7471L85.2604 69.7425C85.4465 69.5531 85.6054 69.3377 85.713 69.0774C85.8208 68.8166 85.8609 68.55 85.8609 68.2793L85.8609 64.1677C85.8609 63.6201 85.6922 63.0649 85.251 62.6237L75.1433 52.516L75.1433 52.516L75.1385 52.5112C74.5835 51.9663 73.684 51.9628 73.1285 52.5184L71.0418 54.6051L70.5114 55.1354Z" fill="#12FF80" stroke="#12FF80" stroke-width="1.5"/>
<path d="M64.136 55.0002L63.9822 55.1541C64.0898 55.6173 63.9635 56.1245 63.6033 56.4847L54.9804 65.1076C54.6151 65.4729 54.4964 65.801 54.4939 66.0597C54.4915 66.316 54.602 66.6286 54.9423 66.9689L63.6033 75.6299C64.158 76.1846 64.158 77.0877 63.6033 77.6424L61.519 79.7267C60.9643 80.2813 60.0612 80.2813 59.5065 79.7267L49.3917 69.6119L49.3871 69.6072C49.201 69.4178 49.0421 69.2025 48.9344 68.9421C48.8266 68.6813 48.7865 68.4147 48.7865 68.144L48.7865 64.0324C48.7865 63.4849 48.9552 62.9297 49.3964 62.4885L59.5042 52.3807L59.5041 52.3807L59.509 52.3759C60.0639 51.831 60.9634 51.8276 61.519 52.3831L63.6057 54.4699L64.136 55.0002Z" fill="#12FF80" stroke="#12FF80" stroke-width="1.5"/>
</svg>
