<svg width="24" height="24" viewBox="0 0 24 24" fill="none" xmlns="http://www.w3.org/2000/svg">
<path fill-rule="evenodd" clip-rule="evenodd" d="M4 10C4 6.691 6.691 4 10 4C13.308 4 16 6.691 16 10C16 13.309 13.308 16 10 16C6.691 16 4 13.309 4 10ZM21.705 20.293L16.313 14.901C17.366 13.547 18 11.849 18 10C18 5.582 14.418 2 10 2C5.581 2 2 5.582 2 10C2 14.418 5.581 18 10 18C11.848 18 13.545 17.367 14.898 16.315L20.291 21.707C20.68 22.096 21.316 22.096 21.705 21.707C22.094 21.318 22.094 20.682 21.705 20.293Z" fill="#A1A3A7"/>
</svg>
