<svg width="50" height="50" viewBox="0 0 50 50" fill="none"
    xmlns="http://www.w3.org/2000/svg">
    <path d="M6.25 13.5416V20.8333H32.5L39.1667 13.5416H6.25Z" fill="url(#paint0_linear_48_386)"/>
    <path d="M6.25 22.9166V30.2083H24.0625L30.625 22.9166H6.25Z" fill="url(#paint1_linear_48_386)"/>
    <path d="M6.25 32.2916V34.375C6.25 37.8125 9.0625 40.625 12.5 40.625H14.5833L22.1875 32.2916H6.25Z" fill="url(#paint2_linear_48_386)"/>
    <path d="M43.75 13.5416H39.1667L32.5 20.8333H43.75V13.5416Z" fill="url(#paint3_linear_48_386)"/>
    <path d="M43.75 22.9166H30.625L24.0625 30.2083H43.75V22.9166Z" fill="url(#paint4_linear_48_386)"/>
    <path d="M22.1875 32.2916L14.5833 40.625H28.125V47.9166L35.4167 40.625H37.5C40.9375 40.625 43.75 37.8125 43.75 34.375V32.2916H22.1875Z" fill="url(#paint5_linear_48_386)"/>
    <path d="M43.75 11.4583V9.37496C43.75 9.06246 43.75 8.74996 43.6458 8.54163L41.0417 11.4583H43.75Z" fill="url(#paint6_linear_48_386)"/>
    <path d="M37.5 3.125H12.5C9.0625 3.125 6.25 5.9375 6.25 9.375V11.4583H41.0417L43.75 8.54167C43.2292 5.52083 40.625 3.125 37.5 3.125Z" fill="url(#paint7_linear_48_386)"/>
    <defs>
        <linearGradient id="paint0_linear_48_386" x1="40.009" y1="13.5363" x2="15.0748" y2="33.1209" gradientUnits="userSpaceOnUse">
            <stop offset="0.0328893" stop-color="#12FF80"/>
            <stop offset="1" stop-color="#5FDDFF"/>
        </linearGradient>
        <linearGradient id="paint1_linear_48_386" x1="31.2487" y1="22.9113" x2="8.94056" y2="35.8865" gradientUnits="userSpaceOnUse">
            <stop offset="0.0328893" stop-color="#12FF80"/>
            <stop offset="1" stop-color="#5FDDFF"/>
        </linearGradient>
        <linearGradient id="paint2_linear_48_386" x1="22.5953" y1="32.2855" x2="5.0208" y2="38.1336" gradientUnits="userSpaceOnUse">
            <stop offset="0.0328893" stop-color="#12FF80"/>
            <stop offset="1" stop-color="#5FDDFF"/>
        </linearGradient>
        <linearGradient id="paint3_linear_48_386" x1="44.0379" y1="13.5363" x2="31.1849" y2="16.9866" gradientUnits="userSpaceOnUse">
            <stop offset="0.0328893" stop-color="#12FF80"/>
            <stop offset="1" stop-color="#5FDDFF"/>
        </linearGradient>
        <linearGradient id="paint4_linear_48_386" x1="44.2538" y1="22.9113" x2="24.4998" y2="32.1913" gradientUnits="userSpaceOnUse">
            <stop offset="0.0328893" stop-color="#12FF80"/>
            <stop offset="1" stop-color="#5FDDFF"/>
        </linearGradient>
        <linearGradient id="paint5_linear_48_386" x1="44.4964" y1="32.2802" x2="12.1813" y2="42.7757" gradientUnits="userSpaceOnUse">
            <stop offset="0.0328893" stop-color="#12FF80"/>
            <stop offset="1" stop-color="#5FDDFF"/>
        </linearGradient>
        <linearGradient id="paint6_linear_48_386" x1="43.8193" y1="8.53949" x2="40.5865" y2="9.0618" gradientUnits="userSpaceOnUse">
            <stop offset="0.0328893" stop-color="#12FF80"/>
            <stop offset="1" stop-color="#5FDDFF"/>
        </linearGradient>
        <linearGradient id="paint7_linear_48_386" x1="44.7096" y1="3.1189" x2="16.2349" y2="25.4136" gradientUnits="userSpaceOnUse">
            <stop offset="0.0328893" stop-color="#12FF80"/>
            <stop offset="1" stop-color="#5FDDFF"/>
        </linearGradient>
    </defs>
</svg>
