<svg width="50" height="50" viewBox="0 0 50 50" fill="none"
    xmlns="http://www.w3.org/2000/svg">
    <path fill-rule="evenodd" clip-rule="evenodd" d="M18.75 5.16663C18.75 4.61434 18.3023 4.16663 17.75 4.16663H11.4167C10.8644 4.16663 10.4167 4.61434 10.4167 5.16663V11.5C10.4167 12.0522 10.8644 12.5 11.4167 12.5H17.75C18.3023 12.5 18.75 12.0522 18.75 11.5V5.16663ZM33.3334 15.5833C33.3334 15.031 32.8856 14.5833 32.3334 14.5833H5.16669C4.6144 14.5833 4.16669 15.031 4.16669 15.5833V18.75V32.3333C4.16669 32.8856 4.6144 33.3333 5.16669 33.3333L7.33335 33.3333C7.88564 33.3333 8.33335 33.781 8.33335 34.3333V44.8333C8.33335 45.3856 8.78107 45.8333 9.33335 45.8333H11.5C12.0523 45.8333 12.5 45.3856 12.5 44.8333V34.3333C12.5 33.781 12.9477 33.3333 13.5 33.3333H15.6667C16.219 33.3333 16.6667 33.781 16.6667 34.3333V44.8333C16.6667 45.3856 17.1144 45.8333 17.6667 45.8333H19.8334C20.3856 45.8333 20.8334 45.3856 20.8334 44.8333V33.3333V19.75C20.8334 19.1977 21.2811 18.75 21.8334 18.75H32.3334C32.8856 18.75 33.3334 18.3022 33.3334 17.75V15.5833ZM22.9167 5.16663C22.9167 4.61434 23.3644 4.16663 23.9167 4.16663H44.8334C45.3856 4.16663 45.8334 4.61434 45.8334 5.16663V8.33329V29.1666V32.3333C45.8334 32.8856 45.3856 33.3333 44.8334 33.3333H23.9167C23.3644 33.3333 22.9167 32.8856 22.9167 32.3333V30.1666C22.9167 29.6143 23.3644 29.1666 23.9167 29.1666H40.6667C41.219 29.1666 41.6667 28.7189 41.6667 28.1666V9.33329C41.6667 8.78101 41.219 8.33329 40.6667 8.33329H23.9167C23.3644 8.33329 22.9167 7.88558 22.9167 7.33329V5.16663Z" fill="url(#paint0_linear_48_361)"/>
    <defs>
        <linearGradient id="paint0_linear_48_361" x1="46.8996" y1="4.13614" x2="-2.63497" y2="12.7548" gradientUnits="userSpaceOnUse">
            <stop offset="0.0328893" stop-color="#12FF80"/>
            <stop offset="1" stop-color="#5FDDFF"/>
        </linearGradient>
    </defs>
</svg>
