<svg width="30" height="30" viewBox="0 0 30 30" fill="none"
    xmlns="http://www.w3.org/2000/svg">
    <path fill-rule="evenodd" clip-rule="evenodd" d="M15.2 22C14.8134 22 14.5 21.6866 14.5 21.3C14.5 20.9134 14.8134 20.6 15.2 20.6H18.5556C19.1078 20.6 19.5556 20.1523 19.5556 19.6V14.6C19.5556 14.0477 19.1078 13.6 18.5556 13.6H16.2222C15.6699 13.6 15.2222 13.1523 15.2222 12.6V10.4C15.2222 9.84772 14.7745 9.4 14.2222 9.4H10.4444C9.89216 9.4 9.44444 9.84771 9.44444 10.4V14.2778C9.44444 14.6767 9.12109 15 8.72222 15C8.32335 15 8 14.6767 8 14.2778V9C8 8.44772 8.44772 8 9 8H15.9667C16.3533 8 16.6667 8.3134 16.6667 8.7C16.6667 9.0866 16.9801 9.4 17.3667 9.4H17.3889C17.7878 9.4 18.1111 9.72335 18.1111 10.1222V10.8H18.8556C19.2422 10.8 19.5556 11.1134 19.5556 11.5C19.5556 11.8866 19.869 12.2 20.2556 12.2H20.2778C20.6767 12.2 21 12.5234 21 12.9222V21C21 21.5523 20.5523 22 20 22H15.2ZM18.1111 10.8H17.3667C16.9801 10.8 16.6667 11.1134 16.6667 11.5C16.6667 11.8866 16.9801 12.2 17.3667 12.2H17.3889C17.7878 12.2 18.1111 11.8767 18.1111 11.4778V10.8Z" fill="#12FF80"/>
    <path d="M11.6111 20.9C11.6111 20.3477 12.0588 19.9 12.6111 19.9H13.0778C13.4644 19.9 13.7778 19.5866 13.7778 19.2C13.7778 18.8134 13.4644 18.5 13.0778 18.5H12.6111C12.0588 18.5 11.6111 18.0523 11.6111 17.5V17.1222C11.6111 16.7234 11.2878 16.4 10.8889 16.4C10.49 16.4 10.1667 16.7233 10.1667 17.1222V17.5C10.1667 18.0523 9.71895 18.5 9.16667 18.5H8.7C8.3134 18.5 8 18.8134 8 19.2C8 19.5866 8.3134 19.9 8.7 19.9H9.16667C9.71895 19.9 10.1667 20.3477 10.1667 20.9V21.2778C10.1667 21.6766 10.49 22 10.8889 22C11.2878 22 11.6111 21.6767 11.6111 21.2778V20.9Z" fill="#12FF80"/>
</svg>
