<svg width="56" height="56" viewBox="0 0 56 56" fill="none" xmlns="http://www.w3.org/2000/svg">
  <path d="M54.4367 15.1459C53.9191 12.2886 51.4526 10.2077 48.5901 9.55807C44.3067 8.64963 36.3792 8 27.802 8C19.23 8 11.1757 8.64963 6.88707 9.55807C4.02972 10.2077 1.55809 12.1566 1.04042 15.1459C0.517676 18.394 0 22.9414 0 28.7881C0 34.6347 0.517675 39.1821 1.1673 42.4303C1.69005 45.2876 4.15661 47.3685 7.01395 48.0181C11.5613 48.9266 19.3568 49.5762 27.934 49.5762C36.5112 49.5762 44.3067 48.9266 48.8541 48.0181C51.7114 47.3685 54.1779 45.4196 54.7007 42.4303C55.2184 39.1821 55.868 34.5027 56 28.7881C55.736 22.9414 55.0864 18.394 54.4367 15.1459ZM20.7881 37.8829V19.6933L36.638 28.7881L20.7881 37.8829Z" fill="white"/>
</svg>
