<svg id="Layer_1" data-name="Layer 1" xmlns="http://www.w3.org/2000/svg" viewBox="0 0 1000 1000"><defs><style>.cls-1{fill:#009cb4;}</style></defs><title>condtionnal_tokens_logo</title><path class="cls-1" d="M10.53,500v0Z"/><path class="cls-1" d="M688.7,729.52c-112.84,0-205.17-89.35-210-201H11.38c14.76,257.19,228,461.2,488.85,461.2s474.08-204,488.85-461.2H898.74C893.87,640.17,801.54,729.52,688.7,729.52Z"/><path class="cls-1" d="M317.54,270.48c115.53,0,209.58,93.67,210.24,209H989.47C978.73,218.58,763.82,10.3,500.23,10.3S21.72,218.58,11,479.53H107.3C108,364.15,202,270.48,317.54,270.48Z"/><path class="cls-1" d="M688.7,680.55c85.83,0,156.2-67.4,161-152h-322C532.5,613.15,602.87,680.55,688.7,680.55Z"/><path class="cls-1" d="M317.54,319.45c-88.53,0-160.61,71.71-161.27,160.08H478.81C478.15,391.16,406.07,319.45,317.54,319.45Z"/></svg>