<svg xmlns="http://www.w3.org/2000/svg" xmlns:xlink="http://www.w3.org/1999/xlink" width="24" height="25" viewBox="0 0 24 25">
    <defs>
        <path id="a" d="M0 0h24v25H0z"/>
    </defs>
    <g fill="none" fill-rule="evenodd">
        <mask id="b" fill="#fff">
            <use xlink:href="#a"/>
        </mask>
        <path fill="#001428" d="M18.803 8.873a7.975 7.975 0 0 0 1.768-1.898 6.927 6.927 0 0 1-2.035.558 3.725 3.725 0 0 0 1.553-2.01 6.5 6.5 0 0 1-2.25.894c-.678-.781-1.518-1.172-2.518-1.172-.714 0-1.366.205-1.955.615a3.663 3.663 0 0 0-1.312 1.646c-.286.688-.34 1.44-.161 2.26A9.314 9.314 0 0 1 7.822 8.62a10.665 10.665 0 0 1-3.215-2.706 3.57 3.57 0 0 0-.482 1.814c0 .65.142 1.246.428 1.785.286.54.679.976 1.178 1.312a3.565 3.565 0 0 1-1.606-.502v.056c0 .893.268 1.674.803 2.343a3.54 3.54 0 0 0 2.037 1.283c-.501.112-1.037.13-1.608.056a3.425 3.425 0 0 0 1.232 1.814 3.273 3.273 0 0 0 2.036.698c-1.286 1.041-2.732 1.562-4.34 1.562H3.43a9.646 9.646 0 0 0 5.41 1.619c2.036 0 3.857-.54 5.464-1.62 1.428-.966 2.554-2.287 3.376-3.961.75-1.562 1.124-3.181 1.124-4.855v-.446zM21.43 0c.714 0 1.32.26 1.821.781.5.521.75 1.154.75 1.898V22.32c0 .744-.25 1.377-.75 1.898-.5.52-1.107.781-1.821.781H2.57c-.714 0-1.32-.26-1.821-.781-.5-.521-.75-1.154-.75-1.898V2.68C0 1.935.25 1.302.75.78 1.25.261 1.857 0 2.57 0H21.43z" mask="url(#b)"/>
    </g>
</svg>
