<svg xmlns="http://www.w3.org/2000/svg" xmlns:xlink="http://www.w3.org/1999/xlink" width="25" height="25" viewBox="0 0 25 25">
    <defs>
        <path id="a" d="M0 0h25v25H0z"/>
    </defs>
    <g fill="none" fill-rule="evenodd">
        <mask id="b" fill="#fff">
            <use xlink:href="#a"/>
        </mask>
        <path fill="#001428" d="M9.99 18.025c.148-.037.214-.102.195-.195-.02-.093-.093-.13-.223-.112-.131.019-.187.075-.168.168.02.093.083.139.195.139zm-.503-.056c0-.112-.066-.167-.195-.167-.13 0-.196.047-.196.14 0 .093.066.139.196.139s.195-.037.195-.112zm-.781-.056c.037-.11-.01-.186-.14-.223-.13-.036-.214-.009-.25.084-.037.093.009.158.139.195.13.037.214.02.251-.056zm-.67-.334c.038-.037.01-.112-.084-.223-.092-.112-.167-.131-.222-.056-.056.074-.038.157.055.251.094.093.177.103.25.028zm-.503-.503c.075-.037.075-.112 0-.222-.073-.112-.148-.14-.222-.085-.075.056-.075.131 0 .224.074.093.149.12.222.083zm-.39-.558c.075-.037.075-.093 0-.167-.074-.075-.14-.084-.195-.028-.056.056-.047.121.028.195.074.075.13.075.167 0zm-.39-.39c.036-.038.018-.074-.057-.111-.073-.038-.13-.038-.166 0-.038.037-.01.083.083.139.093.056.14.046.14-.029zm8.705 5.3c1.86-.632 3.357-1.757 4.492-3.376 1.135-1.617 1.702-3.45 1.702-5.496 0-1.674-.419-3.199-1.256-4.576a8.946 8.946 0 0 0-3.376-3.236c-1.413-.782-2.957-1.173-4.63-1.173-1.676 0-3.21.39-4.605 1.173A8.402 8.402 0 0 0 4.52 7.98c-.78 1.377-1.171 2.902-1.171 4.576 0 2.046.576 3.879 1.73 5.496 1.153 1.62 2.66 2.744 4.52 3.377.222.038.38.01.474-.084a.492.492 0 0 0 .139-.363v-2.288l-.67.112c-.557 0-1.022-.056-1.394-.167a1.68 1.68 0 0 1-1.061-1.06l-.279-.559c-.222-.408-.465-.669-.725-.78a.851.851 0 0 1-.335-.28c-.111-.186.019-.279.391-.279l.223.056c.224.037.427.13.614.28.223.148.409.352.557.613.373.632.856.968 1.452 1.005.409.036.836-.037 1.283-.224.075-.557.26-.967.558-1.228-.893-.112-1.544-.241-1.952-.39-.707-.224-1.229-.595-1.563-1.117-.41-.632-.615-1.487-.615-2.566 0-.484.066-.884.196-1.2.13-.316.363-.642.697-.977a3.165 3.165 0 0 1-.222-.893 3.475 3.475 0 0 1 .278-1.617c.336-.112.856.017 1.563.39l1.004.613a8.04 8.04 0 0 1 2.317-.334c.8 0 1.571.093 2.315.28a11.74 11.74 0 0 1 1.005-.559c.707-.373 1.227-.502 1.562-.39.224.52.316 1.06.28 1.617a5.506 5.506 0 0 1-.168.893c.334.373.558.688.67.95.186.334.278.743.278 1.227 0 1.08-.223 1.934-.67 2.566-.334.522-.855.893-1.562 1.117-.446.149-1.116.278-2.008.39.408.335.613.893.613 1.674v3.125c0 .149.056.27.168.363.11.093.26.122.446.084zM22.321 0c.744 0 1.378.26 1.898.782.521.52.781 1.153.781 1.897V22.32a2.58 2.58 0 0 1-.781 1.898 2.58 2.58 0 0 1-1.898.781H2.68c-.744 0-1.377-.26-1.897-.781A2.581 2.581 0 0 1 0 22.321V2.68C0 1.935.26 1.302.782.782A2.579 2.579 0 0 1 2.68 0H22.32z" mask="url(#b)"/>
    </g>
</svg>
