<svg xmlns="http://www.w3.org/2000/svg" xmlns:xlink="http://www.w3.org/1999/xlink" width="24" height="25" viewBox="0 0 24 25">
    <defs>
        <path id="a" d="M0 0h24v25H0z"/>
    </defs>
    <g fill="none" fill-rule="evenodd">
        <mask id="b" fill="#fff">
            <use xlink:href="#a"/>
        </mask>
        <path fill="#001428" d="M14.143 13.449a1.48 1.48 0 0 0-.429 1.06c0 .409.143.753.429 1.033.286.278.625.418 1.018.418.392 0 .722-.14.991-.418.267-.28.401-.624.401-1.032 0-.41-.134-.764-.401-1.061a1.283 1.283 0 0 0-.99-.447c-.394 0-.733.15-1.02.447zm1.124 4.325a.357.357 0 0 1-.106.251c-.428.446-1.063.744-1.902.893a7.162 7.162 0 0 1-2.518 0c-.84-.149-1.474-.447-1.902-.893a.357.357 0 0 1-.106-.251c0-.093.035-.178.106-.251a.327.327 0 0 1 .241-.112c.09 0 .17.037.241.112.321.334.848.566 1.58.697.733.13 1.465.13 2.197 0 .733-.13 1.259-.38 1.58-.753a.517.517 0 0 1 .242-.056c.09 0 .17.019.241.056.071.112.106.214.106.307zm-5.41-4.325a1.364 1.364 0 0 0-1.018-.447c-.392 0-.722.15-.991.447a1.534 1.534 0 0 0-.401 1.06c0 .409.134.753.401 1.033.269.278.599.418.99.418.394 0 .733-.14 1.02-.418.285-.28.428-.624.428-1.032 0-.41-.143-.764-.429-1.061zm7.447-2.344C15.911 10.1 14.25 9.58 12.321 9.543l1.018-4.744 3.162.782c0 .408.142.752.428 1.032.286.279.624.418 1.017.418.393 0 .733-.14 1.019-.418.285-.28.428-.624.428-1.032 0-.41-.143-.763-.428-1.06a1.364 1.364 0 0 0-1.019-.447 1.28 1.28 0 0 0-.75.224 1.751 1.751 0 0 0-.535.613l-3.536-.837c-.071-.037-.143-.028-.214.027a.509.509 0 0 0-.161.251l-1.071 5.19c-1.93.075-3.572.614-4.93 1.619-.391-.41-.856-.615-1.391-.615-.644 0-1.144.243-1.5.727-.359.483-.483 1.032-.376 1.646.108.613.446 1.07 1.017 1.367-.07.297-.106.614-.106.949 0 1.041.348 2 1.045 2.873.696.874 1.625 1.563 2.785 2.065 1.161.502 2.428.753 3.803.753 1.376 0 2.644-.251 3.805-.753 1.16-.502 2.08-1.19 2.759-2.065.677-.873 1.017-1.832 1.017-2.873.035-.373 0-.689-.108-.95.572-.297.911-.753 1.019-1.366.107-.614-.019-1.163-.375-1.646-.358-.484-.857-.727-1.5-.727-.5 0-.947.187-1.339.559zM24 22.32c0 .744-.25 1.377-.75 1.898-.5.52-1.107.781-1.821.781H2.57c-.714 0-1.32-.26-1.821-.781-.5-.521-.75-1.154-.75-1.898V2.68C0 1.935.25 1.302.75.78 1.25.261 1.857 0 2.57 0H21.43c.714 0 1.32.26 1.821.781.5.521.75 1.154.75 1.898V22.32z" mask="url(#b)"/>
    </g>
</svg>
