<svg xmlns="http://www.w3.org/2000/svg" width="16" height="16" viewBox="0 0 16 16">
    <g fill="none" fill-rule="evenodd">
        <path d="M0 0H16V16H0z" transform="rotate(-90 8 8)"/>
        <path fill="#001428" d="M12.7 9.297a1 1 0 00-1.414 0l-2.29 2.29V2c0-.55-.45-1-1-1s-1 .45-1 1v9.587l-2.29-2.29a1.003 1.003 0 00-1.415 0 1.003 1.003 0 000 1.414l3.998 3.997c.058.06.132.092.2.133.042.025.076.061.122.081.041.018.087.018.13.028a.995.995 0 00.64-.028c.044-.019.077-.054.118-.079.07-.041.143-.074.204-.135l3.997-3.997a1.003 1.003 0 000-1.414" transform="rotate(-90 8 8)"/>
    </g>
</svg>
