<svg xmlns="http://www.w3.org/2000/svg" width="15" height="15" viewBox="0 0 15 15">
    <g fill="#001428" fill-rule="evenodd">
        <path d="M5.013 9.006a1 1 0 0 1-.448-1.895l1.442-.721V4.015a1 1 0 1 1 2 0v2.992c0 .379-.214.725-.553.895L5.459 8.9a1.003 1.003 0 0 1-.446.105"/>
        <path d="M7.004 2A5.01 5.01 0 0 0 2 7.005a5.01 5.01 0 0 0 5.004 5.004 5.01 5.01 0 0 0 5.005-5.004A5.01 5.01 0 0 0 7.004 2m0 12.009A7.012 7.012 0 0 1 0 7.005C0 3.143 3.142 0 7.004 0c3.862 0 7.005 3.143 7.005 7.005s-3.143 7.004-7.005 7.004"/>
    </g>
</svg>
