<svg xmlns="http://www.w3.org/2000/svg" width="14" height="14" viewBox="0 0 14 14">
    <path fill="#001428" fill-rule="evenodd" d="M7 0a.702.702 0 0 0-.644.41L4.764 4.095a.712.712 0 0 1-.536.401l-3.624.557A.71.71 0 0 0 .2 6.249l2.672 2.469a.706.706 0 0 1 .19.607l-.912 3.85a.712.712 0 0 0 1.046.734l3.458-1.76a.718.718 0 0 1 .69 0l3.396 1.76a.711.711 0 0 0 1.046-.734l-.85-3.85a.703.703 0 0 1 .19-.607L13.8 6.249a.71.71 0 0 0-.402-1.196l-3.625-.557a.708.708 0 0 1-.535-.401L7.644.41A.7.7 0 0 0 7 0m0 3.961l.4.928.025.052a2.707 2.707 0 0 0 2.044 1.533l.978.149-.676.626c-.027.023-.053.049-.078.074a2.723 2.723 0 0 0-.731 2.323l.02.111.247 1.116-.946-.49a2.72 2.72 0 0 0-2.557-.005l-.973.495.258-1.086.027-.141a2.725 2.725 0 0 0-.73-2.322c-.026-.025-.051-.051-.08-.076l-.674-.625.977-.149a2.705 2.705 0 0 0 2.044-1.533l.025-.052.4-.928"/>
</svg>
