<svg xmlns="http://www.w3.org/2000/svg" xmlns:xlink="http://www.w3.org/1999/xlink" width="158" height="161" viewBox="0 0 158 161">
    <defs>
        <path id="a" d="M61.67.548H.888v108.737h60.78V.548z"/>
    </defs>
    <g fill="none" fill-rule="evenodd">
        <path fill="#28B2FA" d="M25.144 142.521c-.965-.818-2.15-1.517-3.554-2.106-1.404-.58-3.001-1.106-4.793-1.576-1.525-.4-2.788-.75-3.781-1.052-1-.302-1.785-.612-2.359-.956-.575-.33-.973-.706-1.193-1.122-.22-.417-.33-.91-.33-1.479v-.1c0-.868.382-1.597 1.142-2.179.761-.585 1.904-.878 3.425-.878 1.523 0 3.047.309 4.568.928 1.523.614 3.074 1.46 4.666 2.53l4.06-5.814a20.985 20.985 0 0 0-6.01-3.305c-2.184-.766-4.578-1.151-7.185-1.151-1.827 0-3.496.247-5.012.753-1.516.497-2.822 1.216-3.915 2.153a9.909 9.909 0 0 0-2.545 3.331c-.605 1.285-.906 2.73-.906 4.333v.1c0 1.742.278 3.187.838 4.36a7.98 7.98 0 0 0 2.358 2.929c1.015.788 2.248 1.445 3.702 1.98 1.454.534 3.08 1.02 4.875 1.453 1.485.368 2.694.72 3.626 1.052.932.337 1.659.67 2.18 1 .525.335.881.696 1.069 1.08.183.386.277.828.277 1.332v.096c0 1.04-.45 1.842-1.345 2.431-.895.583-2.155.875-3.778.875-2.029 0-3.902-.386-5.608-1.15-1.707-.767-3.376-1.806-4.998-3.107L0 154.72c2.132 1.905 4.5 3.32 7.106 4.237a23.858 23.858 0 0 0 7.969 1.38c1.924 0 3.68-.247 5.266-.73 1.583-.481 2.945-1.186 4.092-2.104a9.578 9.578 0 0 0 2.668-3.408c.64-1.35.958-2.895.958-4.636v-.098c0-1.535-.247-2.857-.734-3.957a8.055 8.055 0 0 0-2.181-2.883M90.19 160.33h7.525v-13.962h16.332v-7.216H97.715v-7.677h18.529v-7.214H90.189zM138.818 153.214v-7.559h16.385v-7.05h-16.385v-7.302h18.619v-7.047h-26.164v36h26.41v-7.042zM61.426 146.164h-6.622l1.998-7.306c-1.176-.537-1.998-1.767-1.998-3.199 0-1.926 1.481-3.486 3.315-3.486 1.827 0 3.307 1.56 3.307 3.486 0 1.432-.823 2.662-1.994 3.199l1.994 7.306zm.144-21.903h-6.905l-14.581 36.075h7.633l3.11-8.03h14.392l3.11 8.03h7.83L61.57 124.261zM62.13 55.751L46.371 40.084a11.42 11.42 0 0 0-2.279 6.831c0 6.184 5.034 11.207 11.204 11.207 2.563 0 4.939-.857 6.834-2.37"/>
        <g transform="translate(26.055)">
            <mask id="b" fill="#fff">
                <use xlink:href="#a"/>
            </mask>
            <path fill="#28B2FA" d="M17.171 20.099c9.542-9.37 22.044-14.46 35.452-14.46h.084c.148 0 .296.008.442.011V56.55l-35.978-36.45zM52.526.547c-15.561 0-30.043 6.37-40.66 17.725L10.152 20.1 53.15 63.74v7.825l-.17.171-11.062-11.271a20.02 20.02 0 0 1-17.9 2.27c-10.44-3.82-15.842-15.366-12.059-25.82.537-1.635 1.346-3.093 2.244-4.453l-4.766-4.821-.9 1.546A52.927 52.927 0 0 0 .89 56.558c-.087 29.007 23.299 52.725 51.996 52.725l8.784.002V.555L52.526.548z" mask="url(#b)"/>
        </g>
        <path fill="#28B2FA" d="M131.8 56.12c0-24.307-19.778-44.082-44.092-44.095v5.276c21.404.011 38.816 17.419 38.816 38.818 0 21.394-17.412 38.804-38.816 38.815v5.276c24.314-.013 44.093-19.788 44.093-44.09"/>
        <path fill="#28B2FA" d="M97.688 55.225l-2.103 12.918h10.297l-2.1-12.918c2.342-1.123 3.968-3.482 3.968-6.223 0-3.816-3.14-6.914-7.014-6.914-3.873 0-7.015 3.098-7.015 6.914-.004 2.744 1.62 5.1 3.967 6.223M95.227 25.98c2.58.657 3.574-3.195.995-3.858-2.578-.66-3.572 3.194-.995 3.857M106.483 31.57c2.014 1.688 4.548-1.328 2.534-3.015-2.014-1.686-4.546 1.33-2.534 3.015M113.993 42.96c1.16 2.378 4.709.63 3.548-1.748-1.157-2.37-4.708-.626-3.548 1.748M95.227 86.257c2.58-.661 3.574 3.195.995 3.856-2.578.661-3.572-3.193-.995-3.856M106.483 78.66c2.014-1.687 4.548 1.33 2.534 3.015-2.014 1.688-4.546-1.329-2.534-3.014M113.993 69.274c1.16-2.376 4.709-.629 3.548 1.75-1.157 2.37-4.708.625-3.548-1.75M117.771 56.117c0 2.673 4.009 2.673 4.009 0 0-2.671-4.009-2.671-4.009 0"/>
    </g>
</svg>
