<svg xmlns="http://www.w3.org/2000/svg" xmlns:xlink="http://www.w3.org/1999/xlink" width="106" height="110" viewBox="0 0 106 110">
    <defs>
        <path id="a" d="M61.67.548H.888v108.737h60.78V.548z"/>
    </defs>
    <g fill="none" fill-rule="evenodd">
        <path fill="#fff" d="M36.13 55.751L20.371 40.084a11.42 11.42 0 0 0-2.279 6.831c0 6.184 5.034 11.207 11.204 11.207 2.563 0 4.939-.857 6.834-2.37"/>
        <g transform="translate(.055)">
            <mask id="b" fill="#fff">
                <use xlink:href="#a"/>
            </mask>
            <path fill="#fff" d="M17.171 20.099c9.542-9.37 22.044-14.46 35.452-14.46h.084c.148 0 .296.008.442.011V56.55l-35.978-36.45zM52.526.547c-15.561 0-30.043 6.37-40.66 17.725L10.152 20.1 53.15 63.74v7.825l-.17.171-11.062-11.271a20.02 20.02 0 0 1-17.9 2.27c-10.44-3.82-15.842-15.366-12.059-25.82.537-1.635 1.346-3.093 2.244-4.453l-4.766-4.821-.9 1.546A52.927 52.927 0 0 0 .89 56.558c-.087 29.007 23.299 52.725 51.996 52.725l8.784.002V.555L52.526.548z" mask="url(#b)"/>
        </g>
        <path fill="#fff" d="M105.8 56.12c0-24.307-19.778-44.082-44.092-44.095v5.276c21.404.011 38.816 17.419 38.816 38.818 0 21.394-17.412 38.804-38.816 38.815v5.276c24.314-.013 44.093-19.788 44.093-44.09"/>
        <path fill="#fff" d="M71.688 55.225l-2.102 12.918h10.296l-2.1-12.918c2.342-1.123 3.968-3.482 3.968-6.223 0-3.816-3.14-6.914-7.014-6.914-3.872 0-7.015 3.098-7.015 6.914-.004 2.744 1.62 5.1 3.967 6.223M69.227 25.98c2.58.657 3.574-3.195.996-3.858-2.579-.66-3.573 3.194-.996 3.857M80.483 31.57c2.014 1.688 4.548-1.328 2.534-3.015-2.014-1.686-4.546 1.33-2.534 3.015M87.993 42.96c1.16 2.378 4.709.63 3.548-1.748-1.157-2.37-4.708-.626-3.548 1.748M69.227 86.257c2.58-.661 3.574 3.195.996 3.856-2.579.661-3.573-3.193-.996-3.856M80.483 78.66c2.014-1.687 4.548 1.33 2.534 3.015-2.014 1.688-4.546-1.329-2.534-3.014M87.993 69.274c1.16-2.376 4.709-.629 3.548 1.75-1.157 2.37-4.708.625-3.548-1.75M91.771 56.117c0 2.673 4.009 2.673 4.009 0 0-2.671-4.009-2.671-4.009 0"/>
    </g>
</svg>
