<svg id="Layer_1" data-name="Layer 1" xmlns="http://www.w3.org/2000/svg" viewBox="0 0 440 540"><defs><style>.cls-1{fill:#008c73;}</style></defs><title>vertical_green</title><path class="cls-1" d="M220,8.2C105.6,8.2,12.86,100.94,12.86,215.34S105.6,422.49,220,422.49s207.14-92.75,207.14-207.15S334.4,8.2,220,8.2ZM371.61,226.65H275.49a58.56,58.56,0,1,1,.44-20.38h95.68a10.19,10.19,0,0,1,0,20.38Z"/><path class="cls-1" d="M38.65,530.51A26.06,26.06,0,0,1,31,527.05a25.67,25.67,0,0,1-6-5.57,24.69,24.69,0,0,1-3.9-7.66,33.23,33.23,0,0,1,.48-20.5,26.49,26.49,0,0,1,5.29-8.81,23.88,23.88,0,0,1,8.61-5.88A29.67,29.67,0,0,1,47,476.48a30.05,30.05,0,0,1,11.9,2.5,26.61,26.61,0,0,1,9.86,7.12l-9,7.62A17.82,17.82,0,0,0,47,488.4a13.56,13.56,0,0,0-5.38,1.07,13.11,13.11,0,0,0-4.44,3.07,14.48,14.48,0,0,0-3,5,19.15,19.15,0,0,0-1.13,6.7,18.78,18.78,0,0,0,1,6.14,15.61,15.61,0,0,0,2.83,5,13.14,13.14,0,0,0,4.59,3.4,14.49,14.49,0,0,0,6.09,1.26,18.86,18.86,0,0,0,9.21-2.41v-6.1H46.38V500.9h22.5v24.2a29.35,29.35,0,0,1-9.49,4.74,39.56,39.56,0,0,1-11.9,1.81A33.41,33.41,0,0,1,38.65,530.51Z"/><path class="cls-1" d="M105.22,494.08a10.91,10.91,0,0,1,4.16,2.57,11.21,11.21,0,0,1,2.8,4.84,24.73,24.73,0,0,1,1,7.33v22.24H101.3V511.74a13.33,13.33,0,0,0-.69-4.75,4.43,4.43,0,0,0-1.92-2.44,6.82,6.82,0,0,0-3.31-.69,6.64,6.64,0,0,0-3.55.93,6.12,6.12,0,0,0-2.39,2.88,11.77,11.77,0,0,0-.87,4.78v18.61H76.73V494H88.57v4.48h.07a15.06,15.06,0,0,1,5.07-3.85,14.51,14.51,0,0,1,6.15-1.33A16.29,16.29,0,0,1,105.22,494.08Z"/><path class="cls-1" d="M131,530.38a18.35,18.35,0,0,1-6.34-4,17.74,17.74,0,0,1-4.07-6.11,21.16,21.16,0,0,1,0-15.5,17.74,17.74,0,0,1,4.07-6.11,18.7,18.7,0,0,1,6.34-4,22.47,22.47,0,0,1,8.14-1.44,21.8,21.8,0,0,1,10.37,2.42,17.51,17.51,0,0,1,7.08,6.83,21,21,0,0,1,0,20,17.59,17.59,0,0,1-7.08,6.81,21.8,21.8,0,0,1-10.37,2.42A22.68,22.68,0,0,1,131,530.38Zm13.86-11.59a9.67,9.67,0,0,0,0-12.5,8.08,8.08,0,0,0-11.57,0,9.7,9.7,0,0,0,0,12.47,7.91,7.91,0,0,0,11.49,0Z"/><path class="cls-1" d="M162.63,526.29l5.62-8a14,14,0,0,0,9.73,4.22,6,6,0,0,0,1.82-.24,2.49,2.49,0,0,0,1.13-.7,1.7,1.7,0,0,0,.38-1.13c0-.5-.4-1-1.2-1.43a27,27,0,0,0-4.49-1.72c-.94-.29-1.8-.6-2.59-.9a23.33,23.33,0,0,1-2.41-1.11,18.37,18.37,0,0,1-2.16-1.35,12.57,12.57,0,0,1-1.8-1.65,9.85,9.85,0,0,1-1.42-2,9.48,9.48,0,0,1-.89-2.42A12.78,12.78,0,0,1,164,505a10.69,10.69,0,0,1,1.85-6.2,11.77,11.77,0,0,1,5-4.08,17.1,17.1,0,0,1,7.07-1.41,23.5,23.5,0,0,1,5.1.52,20.58,20.58,0,0,1,4.52,1.53A25.75,25.75,0,0,1,191.9,498l-5.63,8.47a13.63,13.63,0,0,0-4.14-2.88,10.43,10.43,0,0,0-4.22-1,3.76,3.76,0,0,0-1.81.44,1.52,1.52,0,0,0-.82,1.44c0,.47.38.95,1.13,1.45a18.57,18.57,0,0,0,3.72,1.66l2.35.87c.63.24,1.33.51,2.09.84s1.4.61,1.91.87,1.05.56,1.63.9a11,11,0,0,1,1.42,1,15.07,15.07,0,0,1,1.15,1.13,5.91,5.91,0,0,1,.92,1.31,15.42,15.42,0,0,1,.63,1.5,9.08,9.08,0,0,1,.43,1.78,16.2,16.2,0,0,1,.13,2,12,12,0,0,1-.93,4.79,10.5,10.5,0,0,1-2.74,3.78,12.72,12.72,0,0,1-4.68,2.51,21.6,21.6,0,0,1-6.57.91A22.33,22.33,0,0,1,162.63,526.29Z"/><path class="cls-1" d="M200,487.64a6.44,6.44,0,0,1-2.12-5,6.57,6.57,0,0,1,1-3.57,6.88,6.88,0,0,1,2.69-2.44,8,8,0,0,1,3.72-.87,7.51,7.51,0,0,1,5.27,1.94,6.38,6.38,0,0,1,2.13,4.94,6.45,6.45,0,0,1-2.13,5,8.14,8.14,0,0,1-10.55,0Zm-.64,6.34h11.8v37.08h-11.8Z"/><path class="cls-1" d="M216.85,526.29l5.63-8a14,14,0,0,0,9.73,4.22,5.88,5.88,0,0,0,1.81-.24,2.43,2.43,0,0,0,1.13-.7,1.71,1.71,0,0,0,.39-1.13c0-.5-.4-1-1.2-1.43a26.8,26.8,0,0,0-4.5-1.72c-.94-.29-1.8-.6-2.59-.9a23.2,23.2,0,0,1-2.4-1.11,18.54,18.54,0,0,1-2.17-1.35,12,12,0,0,1-1.79-1.65,9.61,9.61,0,0,1-2.32-4.44,12.79,12.79,0,0,1-.31-2.91,10.69,10.69,0,0,1,1.85-6.2,11.71,11.71,0,0,1,5-4.08,17.05,17.05,0,0,1,7.06-1.41,23.59,23.59,0,0,1,5.11.52,20.49,20.49,0,0,1,4.51,1.53,25,25,0,0,1,4.33,2.65l-5.62,8.47a13.67,13.67,0,0,0-4.15-2.88,10.38,10.38,0,0,0-4.21-1,3.83,3.83,0,0,0-1.82.44,1.53,1.53,0,0,0-.81,1.44c0,.47.38.95,1.13,1.45a18.57,18.57,0,0,0,3.72,1.66l2.35.87c.63.24,1.32.51,2.09.84s1.4.61,1.9.87,1.05.56,1.63.9a10.55,10.55,0,0,1,1.43,1,13.4,13.4,0,0,1,1.14,1.13,5.66,5.66,0,0,1,.93,1.31,15.42,15.42,0,0,1,.63,1.5,9.07,9.07,0,0,1,.42,1.78,14.53,14.53,0,0,1,.13,2,12.17,12.17,0,0,1-.92,4.79,10.5,10.5,0,0,1-2.74,3.78,12.72,12.72,0,0,1-4.68,2.51,21.6,21.6,0,0,1-6.57.91A22.38,22.38,0,0,1,216.85,526.29Z"/><path class="cls-1" d="M278.79,529.66a29.16,29.16,0,0,1-9.38-6.44l7.48-9.25a21,21,0,0,0,6.31,4.81,14.83,14.83,0,0,0,6.38,1.62,8.82,8.82,0,0,0,3.52-.61,4.14,4.14,0,0,0,2-1.57,4.27,4.27,0,0,0,.57-2.22,4.1,4.1,0,0,0-1.67-3.46,24,24,0,0,0-6.36-2.83c-1.31-.44-2.47-.87-3.5-1.28s-2.12-.91-3.31-1.51a26.53,26.53,0,0,1-3.09-1.85,20.32,20.32,0,0,1-2.59-2.26,12.58,12.58,0,0,1-2.07-2.8,15.54,15.54,0,0,1-1.3-3.4,16.54,16.54,0,0,1-.5-4.14,14.6,14.6,0,0,1,2.35-8.05,16.44,16.44,0,0,1,6.41-5.74,19.82,19.82,0,0,1,8.9-2.16q10.09-.15,18.72,7l-7.22,9.4q-6.44-5.19-11.1-5.18a5.37,5.37,0,0,0-3.57,1.11A3.94,3.94,0,0,0,284.4,492a3.5,3.5,0,0,0,1.61,3,31,31,0,0,0,6.24,3,84.68,84.68,0,0,1,9.17,3.95,13.71,13.71,0,0,1,6.55,7,16.15,16.15,0,0,1,.93,5.7,17.59,17.59,0,0,1-1.22,6.66,14.27,14.27,0,0,1-3.2,4.92,18.66,18.66,0,0,1-4.59,3.26,20.93,20.93,0,0,1-5.26,1.89,25.88,25.88,0,0,1-5.34.55A27,27,0,0,1,278.79,529.66Z"/><path class="cls-1" d="M352.49,494v37.08H341.25v-4h-.15c-2.4,3.14-5.82,4.7-10.29,4.7a17.48,17.48,0,0,1-7-1.4,16.18,16.18,0,0,1-5.55-3.89,17.46,17.46,0,0,1-3.59-6.07,24.14,24.14,0,0,1,0-15.63,18.19,18.19,0,0,1,3.55-6.12,16.15,16.15,0,0,1,5.39-3.95,15.89,15.89,0,0,1,6.68-1.42,12.82,12.82,0,0,1,10.21,4.63h.15V494Zm-13.65,24.93a8.88,8.88,0,0,0,2.26-6.31,9.94,9.94,0,0,0-1-4.54,7.79,7.79,0,0,0-2.81-3.14,7.35,7.35,0,0,0-4-1.13,7.44,7.44,0,0,0-5.7,2.44,10.09,10.09,0,0,0,0,12.68,7.79,7.79,0,0,0,11.29,0Z"/><path class="cls-1" d="M361.53,503.64H357.9V494h3.63v-5.77q0-6.73,3.24-10.19t9-3.46a17.85,17.85,0,0,1,5.92.92,16.74,16.74,0,0,1,4.07,1.92l-2.18,8.52a10.59,10.59,0,0,0-4.7-1.3c-2.29,0-3.44,1.35-3.44,4V494h7.07v9.66h-7.07v27.42H361.53Z"/><path class="cls-1" d="M419.93,515.7H394.69a7.3,7.3,0,0,0,3.06,4.72,9.77,9.77,0,0,0,5.71,1.69,11.6,11.6,0,0,0,9-4.48l6.29,7.07a17.9,17.9,0,0,1-6.78,5.12,23.17,23.17,0,0,1-9.76,1.94,20.63,20.63,0,0,1-7.65-1.4,18.09,18.09,0,0,1-6.12-3.91,17.84,17.84,0,0,1-4-6.1,20.4,20.4,0,0,1-1.48-7.83,20.75,20.75,0,0,1,1.42-7.73,17.39,17.39,0,0,1,9.88-10.07,19.57,19.57,0,0,1,7.53-1.44,18.88,18.88,0,0,1,9.55,2.41,16.82,16.82,0,0,1,6.57,6.73,20.22,20.22,0,0,1,2.35,9.77A26.91,26.91,0,0,1,419.93,515.7Zm-22.72-11.41a7.09,7.09,0,0,0-2.48,4.35l13.88-.08a9,9,0,0,0-1.3-3.11,5.87,5.87,0,0,0-2.29-2,7,7,0,0,0-3.15-.71A7.21,7.21,0,0,0,397.21,504.29Z"/></svg>